<?xml version="1.0" encoding="utf-8"?>
<!-- Generator: Adobe Illustrator 16.0.0, SVG Export Plug-In . SVG Version: 6.00 Build 0)  -->
<!DOCTYPE svg PUBLIC "-//W3C//DTD SVG 1.1//EN" "http://www.w3.org/Graphics/SVG/1.1/DTD/svg11.dtd">
<svg version="1.1" id="Layer_1" xmlns="http://www.w3.org/2000/svg" xmlns:xlink="http://www.w3.org/1999/xlink" x="0px" y="0px"
	 width="595.279px" height="595.281px" viewBox="123.305 0 595.279 595.281" enable-background="new 123.305 0 595.279 595.281"
	 xml:space="preserve">
<rect x="123.305" y="0.273" fill="#F5F5F5" width="594.733" height="594.734"/>
<g>
	<rect x="123.305" y="0.273" fill="#FF4B55" width="595.279" height="45.739"/>
	<rect x="123.305" y="183.269" fill="#FF4B55" width="595.279" height="45.739"/>
	<rect x="123.305" y="91.774" fill="#FF4B55" width="595.279" height="45.739"/>
	<rect x="123.305" y="274.76" fill="#FF4B55" width="595.279" height="45.738"/>
	<rect x="123.305" y="457.75" fill="#FF4B55" width="595.279" height="45.739"/>
	<rect x="123.305" y="549.251" fill="#FF4B55" width="595.279" height="45.739"/>
	<rect x="123.305" y="366.26" fill="#FF4B55" width="595.279" height="45.739"/>
</g>
<rect x="123.305" y="0.273" fill="#41479B" width="320.242" height="320.242"/>
<g>
	<path fill="#F5F5F5" d="M164.252,24.2l2.467,7.398l7.8,0.061c1.009,0.009,1.429,1.297,0.616,1.896l-6.274,4.633l2.353,7.437
		c0.305,0.963-0.791,1.76-1.614,1.172l-6.346-4.535l-6.346,4.535c-0.82,0.589-1.917-0.209-1.613-1.172l2.352-7.437l-6.273-4.633
		c-0.812-0.6-0.395-1.888,0.616-1.896l7.799-0.061l2.468-7.398C162.578,23.242,163.934,23.242,164.252,24.2z"/>
	<path fill="#F5F5F5" d="M164.252,85.923l2.467,7.399l7.8,0.061c1.009,0.008,1.429,1.296,0.616,1.896l-6.274,4.633l2.353,7.437
		c0.305,0.963-0.791,1.759-1.614,1.172l-6.346-4.536l-6.346,4.536c-0.82,0.588-1.917-0.209-1.613-1.172l2.352-7.437l-6.273-4.633
		c-0.812-0.601-0.395-1.889,0.616-1.896l7.799-0.061l2.468-7.399C162.578,84.964,163.934,84.964,164.252,85.923z"/>
	<path fill="#F5F5F5" d="M164.252,154.378l2.467,7.399l7.8,0.061c1.009,0.008,1.429,1.296,0.616,1.897l-6.274,4.633l2.353,7.437
		c0.305,0.963-0.791,1.759-1.614,1.172l-6.346-4.536l-6.346,4.536c-0.82,0.588-1.917-0.209-1.613-1.172l2.352-7.437l-6.273-4.633
		c-0.812-0.601-0.395-1.89,0.616-1.897l7.799-0.061l2.468-7.399C162.578,153.42,163.934,153.42,164.252,154.378z"/>
	<path fill="#F5F5F5" d="M164.252,217.272l2.467,7.399l7.8,0.061c1.009,0.008,1.429,1.297,0.616,1.896l-6.274,4.633l2.353,7.437
		c0.305,0.963-0.791,1.759-1.614,1.172l-6.346-4.535l-6.346,4.535c-0.82,0.589-1.917-0.209-1.613-1.172l2.352-7.437l-6.273-4.633
		c-0.812-0.6-0.395-1.889,0.616-1.896l7.799-0.061l2.468-7.399C162.578,216.314,163.934,216.314,164.252,217.272z"/>
	<path fill="#F5F5F5" d="M164.252,274.506l2.467,7.399l7.8,0.061c1.009,0.008,1.429,1.296,0.616,1.896l-6.274,4.634l2.353,7.437
		c0.305,0.962-0.791,1.759-1.614,1.172l-6.346-4.536l-6.346,4.536c-0.82,0.588-1.917-0.21-1.613-1.172l2.352-7.437l-6.273-4.634
		c-0.812-0.6-0.395-1.889,0.616-1.896l7.799-0.061l2.468-7.399C162.578,273.548,163.934,273.548,164.252,274.506z"/>
	<path fill="#F5F5F5" d="M194.294,53.427l2.467,7.399l7.8,0.061c1.009,0.008,1.429,1.296,0.616,1.896l-6.274,4.633l2.353,7.437
		c0.305,0.963-0.791,1.759-1.614,1.172l-6.346-4.536l-6.346,4.536c-0.82,0.588-1.917-0.209-1.613-1.172l2.352-7.437l-6.273-4.633
		c-0.812-0.601-0.395-1.889,0.616-1.896l7.799-0.061l2.468-7.399C192.62,52.469,193.976,52.469,194.294,53.427z"/>
	<path fill="#F5F5F5" d="M194.294,121.884l2.467,7.399l7.8,0.061c1.009,0.008,1.429,1.296,0.616,1.896l-6.274,4.633l2.353,7.437
		c0.305,0.963-0.791,1.759-1.614,1.172l-6.346-4.536l-6.346,4.536c-0.82,0.588-1.917-0.209-1.613-1.172l2.352-7.437l-6.273-4.633
		c-0.812-0.601-0.395-1.889,0.616-1.896l7.799-0.061l2.468-7.399C192.62,120.926,193.976,120.926,194.294,121.884z"/>
	<path fill="#F5F5F5" d="M194.294,186.922l2.467,7.399l7.8,0.061c1.009,0.008,1.429,1.296,0.616,1.896l-6.274,4.634l2.353,7.437
		c0.305,0.962-0.791,1.759-1.614,1.172l-6.346-4.536l-6.346,4.536c-0.82,0.588-1.917-0.21-1.613-1.172l2.352-7.437l-6.273-4.634
		c-0.812-0.6-0.395-1.888,0.616-1.896l7.799-0.061l2.468-7.399C192.62,185.965,193.976,185.965,194.294,186.922z"/>
	<path fill="#F5F5F5" d="M194.294,245.329l2.467,7.399l7.8,0.061c1.009,0.008,1.429,1.296,0.616,1.896l-6.274,4.634l2.353,7.437
		c0.305,0.962-0.791,1.759-1.614,1.172l-6.346-4.536l-6.346,4.536c-0.82,0.588-1.917-0.21-1.613-1.172l2.352-7.437l-6.273-4.634
		c-0.812-0.6-0.395-1.888,0.616-1.896l7.799-0.061l2.468-7.399C192.62,244.37,193.976,244.37,194.294,245.329z"/>
	<path fill="#F5F5F5" d="M224.337,24.2l2.467,7.398l7.8,0.061c1.009,0.009,1.429,1.297,0.616,1.896l-6.274,4.633l2.353,7.437
		c0.305,0.963-0.791,1.76-1.614,1.172l-6.346-4.535l-6.346,4.535c-0.82,0.589-1.917-0.209-1.613-1.172l2.352-7.437l-6.273-4.633
		c-0.812-0.6-0.395-1.888,0.616-1.896l7.799-0.061l2.468-7.398C222.663,23.242,224.018,23.242,224.337,24.2z"/>
	<path fill="#F5F5F5" d="M224.337,85.923l2.467,7.399l7.8,0.061c1.009,0.008,1.429,1.296,0.616,1.896l-6.274,4.633l2.353,7.437
		c0.305,0.963-0.791,1.759-1.614,1.172l-6.346-4.536l-6.346,4.536c-0.82,0.588-1.917-0.209-1.613-1.172l2.352-7.437l-6.273-4.633
		c-0.812-0.601-0.395-1.889,0.616-1.896l7.799-0.061l2.468-7.399C222.663,84.964,224.018,84.964,224.337,85.923z"/>
	<path fill="#F5F5F5" d="M224.337,154.378l2.467,7.399l7.8,0.061c1.009,0.008,1.429,1.296,0.616,1.897l-6.274,4.633l2.353,7.437
		c0.305,0.963-0.791,1.759-1.614,1.172l-6.346-4.536l-6.346,4.536c-0.82,0.588-1.917-0.209-1.613-1.172l2.352-7.437l-6.273-4.633
		c-0.812-0.601-0.395-1.89,0.616-1.897l7.799-0.061l2.468-7.399C222.663,153.42,224.018,153.42,224.337,154.378z"/>
	<path fill="#F5F5F5" d="M224.337,217.272l2.467,7.399l7.8,0.061c1.009,0.008,1.429,1.297,0.616,1.896l-6.274,4.633l2.353,7.437
		c0.305,0.963-0.791,1.759-1.614,1.172l-6.343-4.536l-6.346,4.535c-0.821,0.588-1.918-0.209-1.614-1.172l2.353-7.437l-6.274-4.633
		c-0.812-0.601-0.394-1.889,0.616-1.896l7.8-0.061l2.467-7.399C222.663,216.314,224.018,216.314,224.337,217.272z"/>
	<path fill="#F5F5F5" d="M224.337,274.506l2.467,7.399l7.8,0.061c1.009,0.008,1.429,1.296,0.616,1.896l-6.274,4.634l2.353,7.437
		c0.305,0.962-0.791,1.759-1.614,1.172l-6.346-4.536l-6.346,4.536c-0.82,0.588-1.917-0.21-1.613-1.172l2.352-7.437l-6.273-4.634
		c-0.812-0.6-0.395-1.889,0.616-1.896l7.799-0.061l2.468-7.399C222.663,273.548,224.018,273.548,224.337,274.506z"/>
	<path fill="#F5F5F5" d="M254.379,53.427l2.467,7.399l7.8,0.061c1.009,0.008,1.429,1.296,0.616,1.896l-6.274,4.633l2.353,7.437
		c0.305,0.963-0.791,1.759-1.614,1.172l-6.346-4.536l-6.346,4.536c-0.82,0.588-1.917-0.209-1.613-1.172l2.352-7.437l-6.273-4.633
		c-0.812-0.601-0.395-1.889,0.616-1.896l7.803-0.061l2.467-7.399C252.705,52.469,254.06,52.469,254.379,53.427z"/>
	<path fill="#F5F5F5" d="M254.379,121.884l2.467,7.399l7.8,0.061c1.009,0.008,1.429,1.296,0.616,1.896l-6.274,4.633l2.353,7.437
		c0.305,0.963-0.791,1.759-1.614,1.172l-6.346-4.536l-6.346,4.536c-0.82,0.588-1.917-0.209-1.613-1.172l2.352-7.437l-6.273-4.633
		c-0.812-0.601-0.395-1.889,0.616-1.896l7.799-0.061l2.468-7.399C252.705,120.926,254.06,120.926,254.379,121.884z"/>
	<path fill="#F5F5F5" d="M254.379,186.922l2.467,7.399l7.8,0.061c1.009,0.008,1.429,1.296,0.616,1.896l-6.274,4.634l2.353,7.437
		c0.305,0.962-0.791,1.759-1.614,1.172l-6.346-4.536l-6.346,4.536c-0.82,0.588-1.917-0.21-1.613-1.172l2.352-7.437l-6.273-4.634
		c-0.812-0.6-0.395-1.888,0.616-1.896l7.799-0.061l2.468-7.399C252.705,185.965,254.06,185.965,254.379,186.922z"/>
	<path fill="#F5F5F5" d="M254.379,245.329l2.467,7.399l7.8,0.061c1.009,0.008,1.429,1.296,0.616,1.896l-6.274,4.634l2.353,7.437
		c0.305,0.962-0.791,1.759-1.614,1.172l-6.346-4.536l-6.346,4.536c-0.82,0.588-1.917-0.21-1.613-1.172l2.352-7.437l-6.273-4.634
		c-0.812-0.6-0.395-1.888,0.616-1.896l7.799-0.061l2.468-7.399C252.705,244.37,254.06,244.37,254.379,245.329z"/>
	<path fill="#F5F5F5" d="M284.421,24.2l2.467,7.398l7.8,0.061c1.009,0.009,1.429,1.297,0.615,1.896l-6.273,4.633l2.353,7.437
		c0.305,0.963-0.791,1.76-1.614,1.172l-6.346-4.535l-6.346,4.535c-0.82,0.589-1.917-0.209-1.613-1.172l2.352-7.437l-6.273-4.633
		c-0.812-0.6-0.395-1.888,0.616-1.896l7.799-0.061l2.467-7.398C282.746,23.242,284.101,23.242,284.421,24.2z"/>
	<path fill="#F5F5F5" d="M284.421,85.923l2.467,7.399l7.8,0.061c1.009,0.008,1.429,1.296,0.615,1.896l-6.273,4.633l2.353,7.437
		c0.305,0.963-0.791,1.759-1.614,1.172l-6.346-4.536l-6.346,4.536c-0.82,0.588-1.917-0.209-1.613-1.172l2.352-7.437l-6.273-4.633
		c-0.812-0.601-0.395-1.889,0.616-1.896l7.799-0.061l2.467-7.399C282.746,84.964,284.101,84.964,284.421,85.923z"/>
	<path fill="#F5F5F5" d="M284.421,154.378l2.467,7.399l7.8,0.061c1.009,0.008,1.429,1.296,0.615,1.897l-6.273,4.633l2.353,7.437
		c0.305,0.963-0.791,1.759-1.614,1.172l-6.346-4.536l-6.346,4.536c-0.82,0.588-1.917-0.209-1.613-1.172l2.352-7.437l-6.273-4.633
		c-0.812-0.601-0.395-1.89,0.616-1.897l7.799-0.061l2.467-7.399C282.746,153.42,284.101,153.42,284.421,154.378z"/>
	<path fill="#F5F5F5" d="M284.421,217.272l2.467,7.399l7.8,0.061c1.009,0.008,1.429,1.297,0.615,1.896l-6.273,4.633l2.353,7.437
		c0.305,0.963-0.791,1.759-1.614,1.172l-6.346-4.535l-6.346,4.535c-0.82,0.589-1.917-0.209-1.613-1.172l2.352-7.437l-6.273-4.633
		c-0.812-0.6-0.395-1.889,0.616-1.896l7.799-0.061l2.467-7.399C282.746,216.314,284.101,216.314,284.421,217.272z"/>
	<path fill="#F5F5F5" d="M284.421,274.506l2.467,7.399l7.8,0.061c1.009,0.008,1.429,1.296,0.615,1.896l-6.273,4.634l2.353,7.437
		c0.305,0.962-0.791,1.759-1.614,1.172l-6.346-4.536l-6.346,4.536c-0.82,0.588-1.917-0.21-1.613-1.172l2.352-7.437l-6.273-4.634
		c-0.812-0.6-0.395-1.889,0.616-1.896l7.799-0.061l2.467-7.399C282.746,273.548,284.101,273.548,284.421,274.506z"/>
	<path fill="#F5F5F5" d="M314.463,53.427l2.467,7.399l7.799,0.061c1.01,0.008,1.43,1.296,0.616,1.896l-6.273,4.633l2.353,7.437
		c0.305,0.963-0.791,1.759-1.614,1.172l-6.346-4.536l-6.346,4.536c-0.821,0.588-1.917-0.209-1.614-1.172l2.353-7.437l-6.273-4.633
		c-0.812-0.601-0.395-1.889,0.615-1.896l7.799-0.061l2.467-7.399C312.788,52.469,314.143,52.469,314.463,53.427z"/>
	<path fill="#F5F5F5" d="M314.463,121.884l2.467,7.399l7.799,0.061c1.01,0.008,1.43,1.296,0.616,1.896l-6.273,4.633l2.353,7.437
		c0.305,0.963-0.791,1.759-1.614,1.172l-6.346-4.536l-6.346,4.536c-0.821,0.588-1.917-0.209-1.614-1.172l2.353-7.437l-6.273-4.633
		c-0.812-0.601-0.395-1.889,0.615-1.896l7.799-0.061l2.467-7.399C312.788,120.926,314.143,120.926,314.463,121.884z"/>
	<path fill="#F5F5F5" d="M314.463,186.922l2.467,7.399l7.799,0.061c1.01,0.008,1.43,1.296,0.616,1.896l-6.273,4.634l2.353,7.437
		c0.305,0.962-0.791,1.759-1.614,1.172l-6.346-4.536l-6.346,4.536c-0.821,0.588-1.917-0.21-1.614-1.172l2.353-7.437l-6.273-4.634
		c-0.812-0.6-0.395-1.888,0.615-1.896l7.799-0.061l2.467-7.399C312.788,185.965,314.143,185.965,314.463,186.922z"/>
	<path fill="#F5F5F5" d="M314.463,245.329l2.467,7.399l7.799,0.061c1.01,0.008,1.43,1.296,0.616,1.896l-6.273,4.634l2.353,7.437
		c0.305,0.962-0.791,1.759-1.614,1.172l-6.346-4.536l-6.346,4.536c-0.821,0.588-1.917-0.21-1.614-1.172l2.353-7.437l-6.273-4.634
		c-0.812-0.6-0.395-1.888,0.615-1.896l7.799-0.061l2.467-7.399C312.788,244.37,314.143,244.37,314.463,245.329z"/>
	<path fill="#F5F5F5" d="M344.505,24.2l2.467,7.398l7.799,0.061c1.01,0.009,1.429,1.297,0.616,1.896l-6.273,4.633l2.352,7.437
		c0.305,0.963-0.79,1.76-1.613,1.172l-6.346-4.535l-6.346,4.535c-0.821,0.589-1.917-0.209-1.614-1.172l2.353-7.437l-6.273-4.633
		c-0.812-0.6-0.395-1.888,0.616-1.896l7.799-0.061l2.467-7.398C342.83,23.242,344.185,23.242,344.505,24.2z"/>
	<path fill="#F5F5F5" d="M344.505,85.923l2.467,7.399l7.799,0.061c1.01,0.008,1.429,1.296,0.616,1.896l-6.273,4.633l2.352,7.437
		c0.305,0.963-0.79,1.759-1.613,1.172l-6.346-4.536l-6.346,4.536c-0.821,0.588-1.917-0.209-1.614-1.172l2.353-7.437l-6.273-4.633
		c-0.812-0.601-0.395-1.889,0.616-1.896l7.799-0.061l2.467-7.399C342.83,84.964,344.185,84.964,344.505,85.923z"/>
	<path fill="#F5F5F5" d="M344.505,154.378l2.467,7.399l7.799,0.061c1.01,0.008,1.429,1.296,0.616,1.897l-6.273,4.633l2.352,7.437
		c0.305,0.963-0.79,1.759-1.613,1.172l-6.346-4.536l-6.346,4.536c-0.821,0.588-1.917-0.209-1.614-1.172l2.353-7.437l-6.273-4.633
		c-0.812-0.601-0.395-1.89,0.616-1.897l7.799-0.061l2.467-7.399C342.83,153.42,344.185,153.42,344.505,154.378z"/>
	<path fill="#F5F5F5" d="M344.505,217.272l2.467,7.399l7.799,0.061c1.01,0.008,1.429,1.297,0.616,1.896l-6.273,4.633l2.352,7.437
		c0.305,0.963-0.79,1.759-1.613,1.172l-6.346-4.535l-6.346,4.535c-0.821,0.589-1.917-0.209-1.614-1.172l2.353-7.437l-6.273-4.633
		c-0.812-0.6-0.395-1.889,0.616-1.896l7.799-0.061l2.467-7.399C342.83,216.314,344.185,216.314,344.505,217.272z"/>
	<path fill="#F5F5F5" d="M344.505,274.506l2.467,7.399l7.799,0.061c1.01,0.008,1.429,1.296,0.616,1.896l-6.273,4.634l2.352,7.437
		c0.305,0.962-0.79,1.759-1.613,1.172l-6.346-4.536l-6.346,4.536c-0.821,0.588-1.917-0.21-1.614-1.172l2.353-7.437l-6.273-4.634
		c-0.812-0.6-0.395-1.889,0.616-1.896l7.799-0.061l2.467-7.399C342.83,273.548,344.185,273.548,344.505,274.506z"/>
	<path fill="#F5F5F5" d="M374.548,53.427l2.467,7.399l7.799,0.061c1.01,0.008,1.43,1.296,0.616,1.896l-6.273,4.633l2.353,7.437
		c0.305,0.963-0.791,1.759-1.614,1.172l-6.346-4.536l-6.346,4.536c-0.821,0.588-1.917-0.209-1.614-1.172l2.353-7.437l-6.273-4.633
		c-0.812-0.601-0.395-1.889,0.616-1.896l7.799-0.061l2.467-7.399C372.872,52.469,374.228,52.469,374.548,53.427z"/>
	<path fill="#F5F5F5" d="M374.548,121.884l2.467,7.399l7.799,0.061c1.01,0.008,1.43,1.296,0.616,1.896l-6.273,4.633l2.353,7.437
		c0.305,0.963-0.791,1.759-1.614,1.172l-6.346-4.536l-6.346,4.536c-0.821,0.588-1.917-0.209-1.614-1.172l2.353-7.437l-6.273-4.633
		c-0.812-0.601-0.395-1.889,0.616-1.896l7.799-0.061l2.467-7.399C372.872,120.926,374.228,120.926,374.548,121.884z"/>
	<path fill="#F5F5F5" d="M374.548,186.922l2.467,7.399l7.799,0.061c1.01,0.008,1.43,1.296,0.616,1.896l-6.273,4.634l2.353,7.437
		c0.305,0.962-0.791,1.759-1.614,1.172l-6.346-4.536l-6.346,4.536c-0.821,0.588-1.917-0.21-1.614-1.172l2.353-7.437l-6.273-4.634
		c-0.812-0.6-0.395-1.888,0.616-1.896l7.799-0.061l2.467-7.399C372.872,185.965,374.228,185.965,374.548,186.922z"/>
	<path fill="#F5F5F5" d="M374.548,245.329l2.467,7.399l7.799,0.061c1.01,0.008,1.43,1.296,0.616,1.896l-6.273,4.634l2.353,7.437
		c0.305,0.962-0.791,1.759-1.614,1.172l-6.346-4.536l-6.346,4.536c-0.821,0.588-1.917-0.21-1.614-1.172l2.353-7.437l-6.273-4.634
		c-0.812-0.6-0.395-1.888,0.616-1.896l7.799-0.061l2.467-7.399C372.872,244.37,374.228,244.37,374.548,245.329z"/>
	<path fill="#F5F5F5" d="M404.589,24.2l2.468,7.398l7.799,0.061c1.009,0.009,1.429,1.297,0.616,1.896l-6.273,4.633l2.352,7.437
		c0.305,0.963-0.79,1.76-1.613,1.172l-6.346-4.535l-6.346,4.535c-0.821,0.589-1.917-0.209-1.614-1.172l2.353-7.437l-6.273-4.633
		c-0.812-0.6-0.395-1.888,0.616-1.896l7.799-0.061l2.467-7.398C402.914,23.242,404.27,23.242,404.589,24.2z"/>
	<path fill="#F5F5F5" d="M404.589,85.923l2.468,7.399l7.799,0.061c1.009,0.008,1.429,1.296,0.616,1.896l-6.273,4.633l2.352,7.437
		c0.305,0.963-0.79,1.759-1.613,1.172l-6.346-4.536l-6.346,4.536c-0.821,0.588-1.917-0.209-1.614-1.172l2.353-7.437l-6.273-4.633
		c-0.812-0.601-0.395-1.889,0.616-1.896l7.799-0.061l2.467-7.399C402.914,84.964,404.27,84.964,404.589,85.923z"/>
	<path fill="#F5F5F5" d="M404.589,154.378l2.468,7.399l7.799,0.061c1.009,0.008,1.429,1.296,0.616,1.897l-6.273,4.633l2.352,7.437
		c0.305,0.963-0.79,1.759-1.613,1.172l-6.346-4.536l-6.346,4.536c-0.821,0.588-1.917-0.209-1.614-1.172l2.353-7.437l-6.273-4.633
		c-0.812-0.601-0.395-1.89,0.616-1.897l7.799-0.061l2.467-7.399C402.914,153.42,404.27,153.42,404.589,154.378z"/>
	<path fill="#F5F5F5" d="M404.589,217.272l2.468,7.399l7.799,0.061c1.009,0.008,1.429,1.297,0.616,1.896l-6.273,4.633l2.352,7.437
		c0.305,0.963-0.79,1.759-1.613,1.172l-6.346-4.535l-6.346,4.535c-0.821,0.589-1.917-0.209-1.614-1.172l2.353-7.437l-6.273-4.633
		c-0.812-0.6-0.395-1.889,0.616-1.896l7.799-0.061l2.467-7.399C402.914,216.314,404.27,216.314,404.589,217.272z"/>
	<path fill="#F5F5F5" d="M404.589,274.506l2.468,7.399l7.799,0.061c1.009,0.008,1.429,1.296,0.616,1.896l-6.273,4.634l2.352,7.437
		c0.305,0.962-0.79,1.759-1.613,1.172l-6.346-4.536l-6.346,4.536c-0.821,0.588-1.917-0.21-1.614-1.172l2.353-7.437l-6.273-4.634
		c-0.812-0.6-0.395-1.889,0.616-1.896l7.799-0.061l2.467-7.399C402.914,273.548,404.27,273.548,404.589,274.506z"/>
</g>
<path fill="#E30A17" d="M123.305,0h594.733v595.63H123.305V0z"/>
<circle fill="#FFFFFF" cx="343.428" cy="297.814" r="148.907"/>
<circle fill="#E30A17" cx="380.656" cy="297.815" r="119.126"/>
<path fill="#FFFFFF" d="M461.314,297.815l134.688,43.764l-83.242-114.575v141.621l83.242-114.574L461.314,297.815z"/>
</svg>
